<?xml version="1.0" encoding="UTF-8" standalone="no"?>
<!-- Created with Inkscape (http://www.inkscape.org/) -->

<svg
   xmlns:dc="http://purl.org/dc/elements/1.1/"
   xmlns:cc="http://creativecommons.org/ns#"
   xmlns:rdf="http://www.w3.org/1999/02/22-rdf-syntax-ns#"
   xmlns:svg="http://www.w3.org/2000/svg"
   xmlns="http://www.w3.org/2000/svg"
   xmlns:sodipodi="http://sodipodi.sourceforge.net/DTD/sodipodi-0.dtd"
   xmlns:inkscape="http://www.inkscape.org/namespaces/inkscape"
   width="45px"
   height="45px"
   viewBox="0 0 127.39413 81.870075"
   id="svg8890"
   version="1.1"
   inkscape:version="0.91 r13725"
   sodipodi:docname="sz logo monochrome.svg">
  <defs
     id="defs8892" />
  <sodipodi:namedview
     id="base"
     pagecolor="#ffffff"
     bordercolor="#666666"
     borderopacity="1.0"
     inkscape:pageopacity="0.0"
     inkscape:pageshadow="2"
     inkscape:zoom="1.4"
     inkscape:cx="-24.065803"
     inkscape:cy="46.662735"
     inkscape:document-units="px"
     inkscape:current-layer="layer1"
     showgrid="false"
     borderlayer="false"
     fit-margin-top="0"
     fit-margin-left="0"
     fit-margin-right="0"
     fit-margin-bottom="0"
     inkscape:window-width="1368"
     inkscape:window-height="849"
     inkscape:window-x="-8"
     inkscape:window-y="-8"
     inkscape:window-maximized="1" />
  <metadata
     id="metadata8895">
    <rdf:RDF>
      <cc:Work
         rdf:about="">
        <dc:format>image/svg+xml</dc:format>
        <dc:type
           rdf:resource="http://purl.org/dc/dcmitype/StillImage" />
        <dc:title></dc:title>
      </cc:Work>
    </rdf:RDF>
  </metadata>
  <g
     inkscape:label="Layer 1"
     inkscape:groupmode="layer"
     id="layer1"
     transform="translate(-324.87436,-531.42717)">
    <path
       style="opacity:1;fill:none;fill-opacity:1;stroke:#54436f;stroke-width:5;stroke-linecap:round;stroke-linejoin:round;stroke-miterlimit:4;stroke-dasharray:none;stroke-dashoffset:0;stroke-opacity:1"
       d="m 419.2887,542.49035 c 0.1886,-0.1886 8.2574,-2.08382 10.6055,-2.49102 7.5625,-1.31151 14.035,-1.30163 19.4761,0.0297 l 1.8982,0.46447 -0.081,0.63635 c -0.5311,4.1959 -0.8308,5.6902 -1.7821,8.88448 -1.9805,6.65039 -5.7385,14.5186 -11.4272,23.92523 -2.0436,3.37926 -2.7792,4.50781 -2.9382,4.50781"
       id="path15912"
       inkscape:connector-curvature="0"
       sodipodi:nodetypes="csscccsc" />
    <path
       sodipodi:nodetypes="ccscccccccccsccccscsccccsscccccc"
       style="opacity:1;fill:none;fill-opacity:1;stroke:#54436f;stroke-width:5;stroke-linecap:round;stroke-linejoin:round;stroke-miterlimit:4;stroke-dasharray:none;stroke-dashoffset:0;stroke-opacity:1"
       d="m 363.1083,607.78908 c -11.2313,-4.50467 -18.2041,-12.42855 -20.0414,-22.77474 -0.4293,-2.4172 -0.5091,-7.00398 -0.1667,-9.57015 0.6888,-5.16235 2.5973,-11.24881 5.0752,-16.1858 l 0.6808,-1.35648 1.081,1.00959 c 0.8902,0.83132 1.9247,1.60559 4.5113,3.37626 0.095,0.0654 -0.028,0.64197 -0.2969,1.38754 -0.8795,2.43687 -1.1723,4.17205 -1.2712,7.53224 -0.1331,4.52373 0.4606,7.78034 2.0285,11.12611 3.2469,6.92885 9.142,9.64635 14.6575,6.75684 1.2819,-0.67162 3.7767,-3.10862 4.6036,-4.49722 0.3267,-0.54851 0.6867,-0.9973 0.8001,-0.9973 0.3312,0 1.7024,1.65949 3.2245,3.90246 1.653,2.43572 2.8236,3.64561 4.357,4.50308 4.1061,2.26863 7.9893,2.26538 12.0672,0.30686 1.7678,-0.8695 3.2451,-2.30402 4.8696,-4.72826 1.3001,-1.9403 2.996,-3.98414 3.3059,-3.98414 0.083,0 0.5138,0.54871 0.9556,1.21937 2.5461,3.86468 6.3316,5.88485 10.0426,5.3593 5.0012,-0.70825 9.1549,-5.70449 10.6985,-12.86878 0.3185,-1.47816 0.3836,-2.34051 0.3893,-5.15708 0.01,-3.73127 -0.1933,-5.16314 -1.124,-8.01145 -0.2853,-0.87294 -0.4971,-1.644 -0.4707,-1.71348 0.026,-0.0695 0.9455,-0.76485 2.0425,-1.54528 1.097,-0.78043 2.3626,-1.77781 2.8124,-2.21642 l 0.8178,-0.79746 0.8804,1.88536 c 2.5357,5.43041 4.1374,10.66542 4.8014,15.69414 0.3599,2.72506 0.2206,7.89161 -0.278,10.30929 -1.8661,9.04947 -7.5566,16.04561 -16.7859,20.63693 -17.4234,6.44481 -35.9598,8.61977 -54.2679,1.39867 z"
       id="path15914"
       inkscape:connector-curvature="0" />
    <path
       sodipodi:nodetypes="csssscccccssscccsscscc"
       style="opacity:1;fill:none;fill-opacity:1;stroke:#54436f;stroke-width:5;stroke-linecap:round;stroke-linejoin:round;stroke-miterlimit:4;stroke-dasharray:none;stroke-dashoffset:0;stroke-opacity:1"
       d="m 375.207,583.39716 c 0.5391,-1.25344 1.1899,-3.64804 1.478,-5.43848 0.3397,-2.11116 0.3397,-6.28054 0,-8.3917 -1.1848,-7.36297 -5.3505,-13.04721 -10.3446,-14.11566 -1.4941,-0.31965 -3.9421,-0.12236 -5.2781,0.42537 -2.3088,0.94657 -4.4243,2.85082 -5.9775,5.38078 -0.4621,0.75263 -0.8635,1.39996 -0.8919,1.43849 -0.074,0.0997 -1.2968,-0.72054 -3.2179,-2.1579 -1.7213,-1.28779 -3.0809,-2.86713 -3.2908,-3.82242 -0.098,-0.44675 0.1098,-0.85159 1.5206,-2.96049 6.4046,-9.57439 11.0662,-14.06699 17.7878,-17.1429 11.9786,-5.48162 30.8189,-5.54361 42.8441,-0.14095 6.8868,3.0941 11.8079,7.78811 18.101,17.26553 l 1.7274,2.60142 -0.4704,0.96132 c -0.581,1.18759 -2.2527,2.79387 -4.5188,4.3419 -1.5195,1.03805 -1.6805,1.10899 -1.8525,0.81593 -2.2773,-3.88005 -4.6293,-5.98617 -7.6893,-6.88554 -1.3436,-0.39489 -3.5941,-0.36559 -4.9875,0.0649 -3.9226,1.21204 -7.387,5.35775 -8.9688,10.73283 -0.7458,2.53428 -0.9757,4.27432 -0.9771,7.3932 0,3.89367 0.4834,6.48863 1.8528,9.91146"
       id="path15918"
       inkscape:connector-curvature="0" />
    <path
       style="opacity:1;fill:none;fill-opacity:1;stroke:#54436f;stroke-width:5;stroke-linecap:round;stroke-linejoin:round;stroke-miterlimit:4;stroke-dasharray:none;stroke-dashoffset:0;stroke-opacity:1"
       d="m 342.0248,578.56607 c -0.097,0.0316 -1.0243,-1.32033 -2.0602,-3.00439 -3.0985,-5.03738 -5.0073,-8.45915 -7.2159,-12.93578 -3.8333,-7.76976 -5.8445,-13.63459 -6.625,-19.31893 -0.3989,-2.90467 -0.5633,-2.59036 1.6264,-3.10926 3.0441,-0.72136 3.9968,-0.83846 7.6744,-0.94331 4.7914,-0.13659 8.773,0.26462 14.5086,1.46198 2.0351,0.42485 7.7632,1.82958 7.8765,1.93158"
       id="path15916"
       inkscape:connector-curvature="0"
       sodipodi:nodetypes="ccscsssc" />
    <path
       style="opacity:1;fill:#54436f;fill-opacity:1;stroke:none;stroke-width:5;stroke-linecap:round;stroke-linejoin:round;stroke-miterlimit:4;stroke-dasharray:none;stroke-dashoffset:0;stroke-opacity:1"
       d="m 361.9037,589.43704 c -1.5868,-0.65276 -2.2363,-1.12452 -3.7354,-2.71319 -3.8914,-4.1239 -5.5669,-10.2018 -4.8765,-17.68939 0.4541,-4.92503 1.9014,-8.18551 4.842,-10.90802 0.7392,-0.68437 1.92,-1.52716 2.624,-1.87285 1.1605,-0.56986 1.4967,-0.62854 3.6017,-0.62854 2.176,0 2.4137,0.0453 3.79,0.72228 3.2438,1.5956 6.2565,5.94648 7.6024,10.97922 0.5299,1.98158 0.5928,2.61511 0.6136,6.18193 0.023,4.03329 -0.097,5.02191 -0.9915,8.09565 -0.2781,0.9559 -0.6785,1.73816 -1.1418,2.2307 -0.3925,0.4172 -1.1584,1.29701 -1.7021,1.95513 -2.4645,2.98382 -4.5874,4.13965 -7.6221,4.15022 -1.3498,0.004 -2.0581,-0.11392 -3.0043,-0.50314 z"
       id="path8868"
       inkscape:connector-curvature="0" />
    <path
       style="opacity:1;fill:#54436f;fill-opacity:1;stroke:none;stroke-width:5;stroke-linecap:round;stroke-linejoin:round;stroke-miterlimit:4;stroke-dasharray:none;stroke-dashoffset:0;stroke-opacity:1"
       d="m 410.8692,590.05458 c -2.3034,-0.47294 -4.8898,-2.32835 -6.5888,-4.72663 -0.4487,-0.63338 -1.1492,-1.45164 -1.5569,-1.81835 -0.6118,-0.55042 -0.8481,-1.05447 -1.3544,-2.88921 -0.5763,-2.08851 -0.6135,-2.49712 -0.6177,-6.77855 0,-4.07211 0.05,-4.75675 0.508,-6.44518 1.4585,-5.37498 4.2947,-9.44727 7.772,-11.15918 1.3796,-0.67916 1.6432,-0.73106 3.7122,-0.73106 2.0493,0 2.3483,0.0573 3.7441,0.71846 2.8957,1.37152 5.8677,5.06672 6.9663,8.66133 0.5471,1.79001 0.6051,2.34205 0.6879,6.54739 0.082,4.17106 0.046,4.77141 -0.3978,6.5414 -2.0435,8.15705 -7.4184,13.19992 -12.8749,12.07958 z"
       id="path8870"
       inkscape:connector-curvature="0" />
    <circle
       r="5.4178963"
       cy="566.16272"
       cx="364.21039"
       id="circle15922"
       style="opacity:1;fill:#ffffff;fill-opacity:1;stroke:none;stroke-width:5;stroke-linecap:round;stroke-linejoin:round;stroke-miterlimit:4;stroke-dasharray:none;stroke-dashoffset:0;stroke-opacity:1" />
    <path
       inkscape:connector-curvature="0"
       id="path15924"
       d="m 356.1097,570.56556 c -2.1348,17.41817 16.0363,21.49498 10.7068,10.83579 -2.0797,-4.15921 -9.3903,-7.77703 -10.7068,-10.83579 z"
       style="fill:#ffffff;fill-opacity:1;fill-rule:evenodd;stroke:none;stroke-width:5;stroke-linecap:butt;stroke-linejoin:miter;stroke-miterlimit:4;stroke-dasharray:none;stroke-opacity:1" />
    <circle
       transform="scale(-1,1)"
       style="opacity:1;fill:#ffffff;fill-opacity:1;stroke:none;stroke-width:5;stroke-linecap:round;stroke-linejoin:round;stroke-miterlimit:4;stroke-dasharray:none;stroke-dashoffset:0;stroke-opacity:1"
       id="circle15934"
       cx="-414.02142"
       cy="566.16272"
       r="5.4178963" />
    <path
       style="fill:#ffffff;fill-opacity:1;fill-rule:evenodd;stroke:none;stroke-width:5;stroke-linecap:butt;stroke-linejoin:miter;stroke-miterlimit:4;stroke-dasharray:none;stroke-opacity:1"
       d="m 421.8261,570.43578 c 2.1348,17.41817 -16.0363,21.49498 -10.7068,10.83579 2.0797,-4.15921 9.3903,-7.77703 10.7068,-10.83579 z"
       id="path15936"
       inkscape:connector-curvature="0" />
  </g>
</svg>
